<svg xmlns="http://www.w3.org/2000/svg" width="128.259" height="107.296" viewBox="0 0 128.259 107.296"><defs><style>.a{fill:#74ffe3;}</style></defs><g transform="translate(0 -41.841)"><path class="a" d="M202.805,335.972a1.875,1.875,0,0,0,1.875-1.875v-3.653a1.875,1.875,0,0,0-3.751,0V334.1A1.875,1.875,0,0,0,202.805,335.972Z" transform="translate(-150.596 -214.901)"/><path class="a" d="M299.514,334.1v-3.653a1.875,1.875,0,0,0-3.751,0V334.1a1.875,1.875,0,0,0,3.751,0Z" transform="translate(-221.673 -214.901)"/><path class="a" d="M202.805,384.6h23.756a1.875,1.875,0,1,0,0-3.751H202.805a1.875,1.875,0,0,0,0,3.751Z" transform="translate(-150.596 -254.083)"/><path class="a" d="M56.718,70.2A28.359,28.359,0,1,0,28.359,98.559,28.391,28.391,0,0,0,56.718,70.2ZM28.359,94.809A24.609,24.609,0,1,1,52.967,70.2,24.636,24.636,0,0,1,28.359,94.809Z" transform="translate(0 0)"/><path class="a" d="M62.055,132.195v-3.653a1.875,1.875,0,1,0-3.751,0v3.653a1.875,1.875,0,1,0,3.751,0Z" transform="translate(-43.699 -63.576)"/><path class="a" d="M155.013,126.666a1.875,1.875,0,0,0-1.875,1.875v3.653a1.875,1.875,0,1,0,3.751,0v-3.653A1.875,1.875,0,0,0,155.013,126.666Z" transform="translate(-114.776 -63.576)"/><path class="a" d="M89.288,178.772a1.875,1.875,0,0,0-2.6.517,9.9,9.9,0,0,1-16.334.187,1.875,1.875,0,0,0-3.069,2.156,13.643,13.643,0,0,0,11.171,5.81l.221,0A13.657,13.657,0,0,0,89.8,181.373a1.875,1.875,0,0,0-.516-2.6Z" transform="translate(-50.173 -102.392)"/><path class="a" d="M313.945,41.842a28.258,28.258,0,0,0-19.365,7.641,1.875,1.875,0,1,0,2.561,2.74,24.552,24.552,0,1,1-4.885,6.341,1.875,1.875,0,1,0-3.3-1.777,28.363,28.363,0,1,0,24.992-14.945Z" transform="translate(-214.045 -0.001)"/><path class="a" d="M345.765,126.666a1.875,1.875,0,0,0-1.875,1.875v3.653a1.875,1.875,0,1,0,3.751,0v-3.653A1.875,1.875,0,0,0,345.765,126.666Z" transform="translate(-257.744 -63.576)"/><path class="a" d="M442.475,132.195v-3.653a1.875,1.875,0,1,0-3.751,0v3.653a1.875,1.875,0,1,0,3.751,0Z" transform="translate(-328.822 -63.576)"/><path class="a" d="M364.3,173.01a13.657,13.657,0,0,0-11.129,6.066,1.875,1.875,0,1,0,3.118,2.085,9.9,9.9,0,0,1,16.334-.187,1.875,1.875,0,0,0,3.069-2.156A13.643,13.643,0,0,0,364.3,173.01Z" transform="translate(-264.464 -98.309)"/><path class="a" d="M171.151,243.743a28.359,28.359,0,1,0,3.783,56.468,1.875,1.875,0,1,0-.5-3.717,24.944,24.944,0,0,1-3.287.217,24.592,24.592,0,1,1,11.023-2.6,1.875,1.875,0,1,0,1.682,3.352,28.363,28.363,0,0,0-12.705-53.719Z" transform="translate(-107.022 -151.325)"/></g></svg>