<svg xmlns="http://www.w3.org/2000/svg" width="142.713" height="142.714" viewBox="0 0 142.713 142.714"><defs><style>.a{fill:#74ffe3;}</style></defs><g transform="translate(-0.001)"><g transform="translate(21.359 131.227)"><path class="a" d="M85.881,477.877l-4.2-5.911a2.787,2.787,0,1,0-4.546,3.227l4.2,5.911a2.787,2.787,0,1,0,4.546-3.227Z" transform="translate(-76.624 -470.791)"/></g><g transform="translate(0.001 43.609)"><g transform="translate(0)"><path class="a" d="M62.774,252.2,58.207,230.43a41.049,41.049,0,0,0-17.361-25.771L31.1,198.1a9.808,9.808,0,0,0-12.433,1.269V165.785a9.331,9.331,0,0,0-15.171-7.278A9.287,9.287,0,0,0,0,165.785V209a27,27,0,0,0,5.01,15.713l4.971,7a2.787,2.787,0,0,0,4.546-3.227l-4.971-7A21.454,21.454,0,0,1,5.576,209V165.785a3.756,3.756,0,1,1,7.513,0v34.289a19.476,19.476,0,0,0,5.023,13.076c.139.166.282.331.432.491,1.851,1.961,4.027,4.273,6.077,6.451l2.87,3.054.029.028c2.455,2.611,4.265,4.539,4.3,4.579a2.787,2.787,0,1,0,4.063-3.816c-.051-.054-3.314-3.529-7.04-7.489l-6.391-6.8-.047-.053a4.7,4.7,0,0,1,.091-6.164,4.214,4.214,0,0,1,5.487-.7l9.75,6.556a35.5,35.5,0,0,1,15.015,22.289l4.567,21.766a2.787,2.787,0,1,0,5.456-1.145Z" transform="translate(-0.001 -156.451)"/></g></g><g transform="translate(15.578 123.083)"><path class="a" d="M60.958,442.769l-.018-.025a2.787,2.787,0,0,0-4.538,3.238l.018.025a2.787,2.787,0,0,0,4.538-3.238Z" transform="translate(-55.884 -441.575)"/></g><g transform="translate(79.881 43.609)"><path class="a" d="M345.922,158.509a9.331,9.331,0,0,0-15.171,7.278v33.587a9.808,9.808,0,0,0-12.433-1.269l-9.75,6.556a41.048,41.048,0,0,0-17.361,25.771L286.64,252.2a2.787,2.787,0,1,0,5.456,1.144l4.567-21.766a35.5,35.5,0,0,1,15.015-22.289l9.75-6.556a4.214,4.214,0,0,1,5.487.7,4.7,4.7,0,0,1,.1,6.158l-.053.059-13.431,14.291a2.787,2.787,0,1,0,4.063,3.816c.038-.04,11.428-12.15,13.279-14.112.151-.16.294-.324.432-.491a19.477,19.477,0,0,0,5.023-13.076V165.787a3.756,3.756,0,1,1,7.513,0v43.219a21.454,21.454,0,0,1-3.981,12.486L318.8,251.156a2.787,2.787,0,1,0,4.546,3.227L344.4,224.719a27,27,0,0,0,5.01-15.713V165.787A9.289,9.289,0,0,0,345.922,158.509Z" transform="translate(-286.58 -156.454)"/></g><g transform="translate(26.032 15.052)"><path class="a" d="M174.02,92.371l-4.959-1.185V90.3A12.467,12.467,0,0,0,174.4,80.076V73.629a12.465,12.465,0,0,0-20.569-9.481,16.275,16.275,0,0,0-30.164.022,12.465,12.465,0,0,0-20.6,9.459v6.447A12.467,12.467,0,0,0,108.405,90.3v.889l-4.959,1.185A13.058,13.058,0,0,0,93.39,105.112v5.206a2.787,2.787,0,0,0,2.787,2.787h12.809c-.02.338-.033.678-.033,1.02v10.023a2.787,2.787,0,0,0,2.787,2.787h16.755a2.787,2.787,0,1,0,0-5.575h-2.88V115.6a2.787,2.787,0,1,0-5.575,0v5.761h-5.513v-7.235a11.541,11.541,0,0,1,8.879-11.258l7.649-1.833,5.119,11.646a2.787,2.787,0,0,0,2.551,1.666h0a2.787,2.787,0,0,0,2.552-1.665l5.114-11.629,7.625,1.822a11.54,11.54,0,0,1,8.887,11.26v7.227H157.39V115.6a2.787,2.787,0,1,0-5.575,0v5.761h-3.159a2.787,2.787,0,1,0,0,5.575h17.034a2.787,2.787,0,0,0,2.787-2.787V114.134c0-.345-.014-.688-.034-1.029h12.845a2.787,2.787,0,0,0,2.787-2.787v-5.206A13.058,13.058,0,0,0,174.02,92.371Zm-12.1-25.643a6.909,6.909,0,0,1,6.885,6.445h-3.875a20.317,20.317,0,0,1-9.346-2.278A6.91,6.91,0,0,1,161.922,66.728Zm-6.9,12.94c0-.136.01-.271.01-.408V76.778a25.892,25.892,0,0,0,9.9,1.97h3.89v1.328a6.9,6.9,0,1,1-13.8,0Zm-26.977-9.387h0a10.707,10.707,0,0,1,21.278-1.7l-4.693-2.757a2.787,2.787,0,0,0-3.548.613,12.009,12.009,0,0,1-9.227,4.306h-3.81Zm-12.5-3.553a6.911,6.911,0,0,1,6.336,4.167,20.318,20.318,0,0,1-9.346,2.278h-3.875A6.91,6.91,0,0,1,115.544,66.728Zm-6.9,12.02h3.89a25.893,25.893,0,0,0,9.91-1.974v3.3a6.9,6.9,0,0,1-13.8,0V78.747Zm13.464,18.7a17.094,17.094,0,0,0-11.845,10.084h-11.3v-2.418a7.5,7.5,0,0,1,5.777-7.32l7.1-1.7a2.787,2.787,0,0,0,2.14-2.711v-.937a12.1,12.1,0,0,0,3.117,0v.8c0,.042,0,.083,0,.125a2.792,2.792,0,0,0,2.265,2.742l4.158,1Zm7.775-4.327a13.079,13.079,0,0,0-2.232-.753l-4.979-1.193V90.3a12.577,12.577,0,0,0,2.416-2.207,16.41,16.41,0,0,0,4.8,4.807Zm12.106,4.1-3.262,7.419L135.457,97.2V95.207a16.335,16.335,0,0,0,6.531.011Zm-3.238-7.248A10.718,10.718,0,0,1,128.044,79.26V76.316h3.81A17.563,17.563,0,0,0,143.7,71.741l5.748,3.377v4.55A10.717,10.717,0,0,1,138.75,89.967Zm8.813,3.161v-.189a16.4,16.4,0,0,0,4.835-4.818,12.574,12.574,0,0,0,2.4,2.184v.869l-4.98,1.193A13.126,13.126,0,0,0,147.563,93.128Zm30.938,14.4H167.165a17.091,17.091,0,0,0-11.853-10.079l-1.4-.334,4.18-1a2.79,2.79,0,0,0,2.277-2.745c0-.022,0-.044,0-.066V92.45a12.1,12.1,0,0,0,3.117,0v.937a2.787,2.787,0,0,0,2.14,2.711l7.1,1.7a7.5,7.5,0,0,1,5.777,7.32v2.418Z" transform="translate(-93.39 -54)"/></g><g transform="translate(68.57 82.414)"><path class="a" d="M250.758,296.484a2.789,2.789,0,1,0,.817,1.973A2.81,2.81,0,0,0,250.758,296.484Z" transform="translate(-246 -295.67)"/></g><g transform="translate(68.568)"><path class="a" d="M248.78,0a2.787,2.787,0,0,0-2.787,2.787V6.958a2.787,2.787,0,1,0,5.575,0V2.787A2.787,2.787,0,0,0,248.78,0Z" transform="translate(-245.993)"/></g><g transform="translate(53.406 5.355)"><path class="a" d="M199.281,22.95l-2.924-2.921a2.787,2.787,0,1,0-3.94,3.944l2.924,2.921a2.787,2.787,0,1,0,3.94-3.944Z" transform="translate(-191.599 -19.213)"/></g><g transform="translate(80.763 5.427)"><path class="a" d="M297.4,20.285a2.787,2.787,0,0,0-3.942,0l-2.9,2.9a2.787,2.787,0,1,0,3.944,3.94l2.9-2.9A2.787,2.787,0,0,0,297.4,20.285Z" transform="translate(-289.746 -19.469)"/></g></g></svg>