<svg xmlns="http://www.w3.org/2000/svg" width="107.124" height="107.124" viewBox="0 0 107.124 107.124"><defs><style>.a{fill:#74ffe3;}</style></defs><g transform="translate(-0.001)"><g transform="translate(0.001 19.249)"><path class="a" d="M100.848,132.8a9.426,9.426,0,0,0-9.415-9.415H77.45a76.33,76.33,0,0,0,3.435-14.462A14.732,14.732,0,0,0,66.326,92a3.138,3.138,0,0,0-3.138,3.138c0,7.582-4.357,19.027-9.442,21.577-5.724,2.869-16.983,6.049-19.226,6.669H3.139A3.138,3.138,0,0,0,0,126.522V170.46A3.138,3.138,0,0,0,3.139,173.6h9.415v3.138a3.138,3.138,0,0,0,3.138,3.138H28.665a9.427,9.427,0,0,0,8.6-5.6l22.019,5.5a3.143,3.143,0,0,0,.761.094h18.83a9.416,9.416,0,0,0,8.753-12.884,9.417,9.417,0,0,0,6.277-12.554,9.411,9.411,0,0,0,4.536-15.362A9.378,9.378,0,0,0,100.848,132.8ZM12.554,167.322H6.277V129.661h6.277ZM31.8,170.46a3.142,3.142,0,0,1-3.138,3.138H18.831V129.661H31.8Zm40.8-28.246h18.83a3.138,3.138,0,0,1,0,6.277H72.6a3.138,3.138,0,0,0,0,6.277H85.156a3.138,3.138,0,1,1,0,6.277H72.6a3.138,3.138,0,1,0,0,6.277h6.277a3.138,3.138,0,1,1,0,6.277H60.435L38.08,168.01V128.9c4.234-1.216,13.216-3.938,18.478-6.576,7.208-3.614,11.621-15.043,12.666-23.537A8.463,8.463,0,0,1,74.676,108c-1.487,9.97-3.351,14.063-4.881,17.122a3.138,3.138,0,0,0,2.807,4.542h18.83a3.138,3.138,0,0,1,0,6.277H72.6a3.138,3.138,0,1,0,0,6.277Z" transform="translate(-0.001 -92)"/></g><g transform="translate(66.326)"><path class="a" d="M320.138,0A3.138,3.138,0,0,0,317,3.138v6.7a3.138,3.138,0,1,0,6.277,0v-6.7A3.138,3.138,0,0,0,320.138,0Z" transform="translate(-317)"/></g><g transform="translate(41.915 10.53)"><path class="a" d="M210.123,55.685l-4.438-4.438a3.138,3.138,0,1,0-4.438,4.438l4.438,4.438a3.138,3.138,0,0,0,4.438-4.438Z" transform="translate(-200.328 -50.327)"/></g><g transform="translate(31.803 34.941)"><path class="a" d="M161.414,167h-6.277a3.138,3.138,0,0,0,0,6.277h6.277a3.138,3.138,0,0,0,0-6.277Z" transform="translate(-151.999 -167)"/></g><g transform="translate(94.571 34.941)"><path class="a" d="M461.415,167h-6.277a3.138,3.138,0,1,0,0,6.277h6.277a3.138,3.138,0,0,0,0-6.277Z" transform="translate(-452 -167)"/></g><g transform="translate(86.298 10.53)"><path class="a" d="M422.255,51.247a3.138,3.138,0,0,0-4.438,0l-4.438,4.438a3.138,3.138,0,1,0,4.438,4.438l4.438-4.438A3.138,3.138,0,0,0,422.255,51.247Z" transform="translate(-412.459 -50.327)"/></g></g></svg>