<svg xmlns="http://www.w3.org/2000/svg" width="107.757" height="107.762" viewBox="0 0 107.757 107.762"><defs><style>.a{fill:#74ffe3;}</style></defs><g transform="translate(-0.01 0)"><g transform="translate(0.011 0)"><path class="a" d="M83.529,57.491,71.876,42.657A25.034,25.034,0,0,0,78.928,26.93H96.972v1.975a8.976,8.976,0,1,0,3.59,0v-3.77a1.8,1.8,0,0,0-1.8-1.8H78.928a24.973,24.973,0,0,0-5.26-13.653l2.5-2.5H97.3a5.386,5.386,0,1,0,0-3.591H75.429a1.8,1.8,0,0,0-1.269.526l-2.9,2.9A25.08,25.08,0,0,0,28.845,23.34H13.765L7.9,10.139a5.368,5.368,0,1,0-3.718.477l6.777,15.249A1.8,1.8,0,0,0,12.6,26.93H28.844a25.024,25.024,0,0,0,6.924,15.579L20.613,57.665A17.942,17.942,0,1,0,15.3,93.152q.444.067.89.111v9.068a1.8,1.8,0,0,0,1.8,1.8H34.469a5.386,5.386,0,1,0,0-3.59H19.777V93.263a17.942,17.942,0,0,0,4.847-34.526L38.447,44.913a24.968,24.968,0,0,0,30.733.124l9.96,12.678a25.144,25.144,0,1,0,4.389-.224ZM104.153,37.7a5.386,5.386,0,1,1-5.386-5.386A5.386,5.386,0,0,1,104.153,37.7Zm-1.8-34.11a1.8,1.8,0,1,1-1.8,1.8A1.8,1.8,0,0,1,102.358,3.592ZM5.415,7.183a1.8,1.8,0,1,1,1.8-1.8A1.8,1.8,0,0,1,5.415,7.183Zm34.11,93.353a1.8,1.8,0,1,1-1.8,1.8A1.8,1.8,0,0,1,39.524,100.535ZM25.162,87.821a14.24,14.24,0,0,1-14.362,0V84.378a7.181,7.181,0,0,1,14.362,0ZM14.391,70.016a3.59,3.59,0,1,1,3.59,3.59A3.59,3.59,0,0,1,14.391,70.016Zm14.362-4.145a14.362,14.362,0,0,1,0,19v-.492a10.771,10.771,0,0,0-5.578-9.43,7.181,7.181,0,1,0-10.389,0,10.771,10.771,0,0,0-5.576,9.43v.492a14.362,14.362,0,1,1,21.543-19Zm37.7-23.279a21.39,21.39,0,0,1-25.133,0V38.24a5.924,5.924,0,0,1,5.924-5.924h3.985l-2.6,6.513a1.8,1.8,0,0,0,.4,1.937l3.59,3.59a1.8,1.8,0,0,0,2.538,0l3.59-3.59a1.8,1.8,0,0,0,.4-1.937l-2.6-6.513h3.991a5.924,5.924,0,0,1,5.924,5.924ZM54.143,13.439a1.786,1.786,0,0,0-.163.355c-.908,2.723-5.813,3.756-8.971,4.055.482-6.016,3.313-8.872,8.877-8.872,5.095,0,7.9,2.409,8.7,7.436l-5.982-3.59A1.8,1.8,0,0,0,54.143,13.439Zm2.219,3.427,6.416,3.851c-.72,4.395-6.136,8.009-8.892,8.009a11.31,11.31,0,0,1-8.727-7.274C48.233,21.2,53.782,20.266,56.362,16.866Zm-.993,22.2-1.483,1.485L52.4,39.064l1.483-3.711Zm6.35-10.256a12.463,12.463,0,0,0,4.734-9.059c0-11.87-6.834-14.362-12.567-14.362S41.32,7.879,41.32,19.749a12.463,12.463,0,0,0,4.734,9.064,9.484,9.484,0,0,0-8.325,9.427v1.092a21.543,21.543,0,1,1,32.314,0V38.24A9.484,9.484,0,0,0,61.719,28.808ZM95.177,100.04a21.39,21.39,0,0,1-25.133,0V95.688a5.924,5.924,0,0,1,5.924-5.924h3.985l-2.6,6.513a1.8,1.8,0,0,0,.4,1.937l3.59,3.59a1.8,1.8,0,0,0,2.538,0l3.59-3.59a1.8,1.8,0,0,0,.4-1.937l-2.6-6.513h3.991a5.924,5.924,0,0,1,5.924,5.924ZM85.086,74.314v0L91.5,78.163c-.72,4.4-6.136,8.01-8.892,8.01A11.31,11.31,0,0,1,73.884,78.9C76.957,78.646,82.506,77.714,85.086,74.314ZM73.733,75.3h0c.481-6.016,3.312-8.872,8.877-8.872,5.095,0,7.9,2.409,8.7,7.436l-5.982-3.59a1.8,1.8,0,0,0-2.626.971C81.8,73.966,76.891,75,73.733,75.3Zm10.36,21.214L82.61,98l-1.483-1.485L82.61,92.8Zm14.674.273v-1.1a9.484,9.484,0,0,0-8.325-9.432A12.463,12.463,0,0,0,95.177,77.2c0-11.87-6.834-14.362-12.567-14.362S70.044,65.327,70.044,77.2a12.463,12.463,0,0,0,4.734,9.064,9.484,9.484,0,0,0-8.325,9.427v1.092a21.541,21.541,0,1,1,32.314.005Z" transform="translate(-0.011 0)"/></g></g></svg>