<svg xmlns="http://www.w3.org/2000/svg" width="143.365" height="142.997" viewBox="0 0 143.365 142.997"><defs><style>.a{fill:#74ffe3;}</style></defs><g transform="translate(-0.424)"><g transform="translate(0.424)"><path class="a" d="M133.045,63.631a4.847,4.847,0,0,0-4.758-3.934h-4.68l-.344-2.063a4.872,4.872,0,0,0-4.05-4.016c-.46-.073-.926-.121-1.384-.184a14.784,14.784,0,0,0-1.842-10.807A9.918,9.918,0,0,0,108.8,29.36,20.623,20.623,0,0,0,88.653,12.525c-.242,0-.458.032-.688.039a9.86,9.86,0,0,0-15.083-1.876A16.636,16.636,0,0,0,63.832,8,16.828,16.828,0,0,0,50.6,14.515,12.072,12.072,0,0,0,35.175,25.363a9.976,9.976,0,0,0-6.11,9.191,9.857,9.857,0,0,0,.242,2.067,19.506,19.506,0,0,0-2.324,16.723c-.65.09-1.314.17-1.939.262a4.876,4.876,0,0,0-4.081,4.014l-.344,2.07H15.926a4.847,4.847,0,0,0-4.755,3.924L.557,118.1A7.271,7.271,0,0,0,7.71,126.76H58.253c2.007,3.311,8.1,4.847,13.854,4.847,5.688,0,11.728-1.5,13.793-4.847h50.6a7.271,7.271,0,0,0,7.152-8.655ZM36.394,38.941a5.119,5.119,0,0,1,2.618-9.506,5.027,5.027,0,0,1,4.069,2.055A2.424,2.424,0,0,0,46.973,28.6,9.792,9.792,0,0,0,40.1,24.723a7.368,7.368,0,0,1,7.186-5.834,7.555,7.555,0,0,1,.882.1,15.92,15.92,0,0,0-.509,1.517,2.424,2.424,0,0,0,4.692,1.212,11.786,11.786,0,0,1,1.258-3.034,11.968,11.968,0,0,1,10.223-5.834,11.772,11.772,0,0,1,6.42,1.939,9.852,9.852,0,0,0-.57,3.177,2.424,2.424,0,1,0,4.847,0,5.1,5.1,0,1,1,10.2,0,2.424,2.424,0,1,0,4.847,0c0-.187-.046-.364-.056-.55a15.732,15.732,0,0,1,14.353,12.133,9.835,9.835,0,0,0-3.136,1.563,2.424,2.424,0,0,0,2.908,3.878,5.109,5.109,0,0,1,7.494,6.609,5.17,5.17,0,0,1-2.3,2.123,2.424,2.424,0,0,0,1.032,4.605,2.392,2.392,0,0,0,1.028-.23,9.955,9.955,0,0,0,1.81-1.132,10.352,10.352,0,0,1-2.05,10.337l-.058.061a10.468,10.468,0,0,1-12.361,2.269,9.62,9.62,0,0,1-1.173-.732,8.255,8.255,0,0,0,.64-8.531,2.425,2.425,0,1,0-4.331,2.181,3.609,3.609,0,0,1-1.168,4.569,3.657,3.657,0,0,1-5.264-1.343,2.424,2.424,0,1,0-4.336,2.169,8.4,8.4,0,0,0,7.552,4.673,8.313,8.313,0,0,0,3.042-.6,14.345,14.345,0,0,0,2.841,1.939A14.93,14.93,0,0,0,107.24,64.99a15.448,15.448,0,0,1-9.981,6.12,2.424,2.424,0,0,0,.381,4.816,2.579,2.579,0,0,0,.385-.029,19.918,19.918,0,0,0,4.3-1.255,21.672,21.672,0,0,1,1.808,4.161,2.5,2.5,0,0,1,.126.783,2.615,2.615,0,0,1-1.59,2.4,2.744,2.744,0,0,1-3.129-.841,15.47,15.47,0,0,0-7.094-4.714c-5.238-1.755-7.259-3.323-8.117-5.029a23.267,23.267,0,0,0,3.715-.776A2.424,2.424,0,1,0,86.62,66a18.367,18.367,0,0,1-4.183.768A17.989,17.989,0,0,1,74.4,65.553a2.424,2.424,0,0,0-2.717.676A10.378,10.378,0,0,1,54.95,54.094a2.431,2.431,0,0,0-4.171-2.5,15.136,15.136,0,0,0-1.386,3.119,3.636,3.636,0,0,1-3.444-3.573v-.061a2.4,2.4,0,0,0-2.424-2.392A2.448,2.448,0,0,0,41.1,51.142a8.434,8.434,0,0,0,7.526,8.364,15.216,15.216,0,0,0,.221,2.424A14.811,14.811,0,0,1,32.089,41.646a9.77,9.77,0,0,0,1.8,1.437,2.424,2.424,0,0,0,2.5-4.152ZM25.73,58.41c1.117-.165,2.271-.31,3.417-.461A19.569,19.569,0,0,0,50.4,66.573,15.182,15.182,0,0,0,74.184,70.6a23.267,23.267,0,0,0,5.058.916c1.171,4.44,4.554,7.13,11.663,9.513a10.742,10.742,0,0,1,4.935,3.25,7.719,7.719,0,0,0,5.856,2.751,7.361,7.361,0,0,0,2.877-.587,7.463,7.463,0,0,0,4.53-6.861,7.191,7.191,0,0,0-.368-2.293,26.494,26.494,0,0,0-2.143-4.932,20.432,20.432,0,0,0,8.054-12.317,15.182,15.182,0,0,0,1.4-1.953c.812.1,1.624.2,2.441.332l8.749,52.628a83.2,83.2,0,0,0-52.7,0V80.71a2.424,2.424,0,1,0-4.847,0V111.06a83.21,83.21,0,0,0-52.7-.019ZM5.822,121.021a2.4,2.4,0,0,1-.509-1.987L15.926,64.544H19.8L12.2,110.253a4.864,4.864,0,0,0,6.256,5.415,81.084,81.084,0,0,1,40.032-2.54l-.722,8.786H7.71a2.441,2.441,0,0,1-1.888-.892Zm66.285,5.739c-5.839,0-9.188-1.726-9.68-2.494l.834-10.058a51.8,51.8,0,0,1,7.8,2.615,2.446,2.446,0,0,0,1.047.242,2.409,2.409,0,0,0,1.049-.242,51.625,51.625,0,0,1,7.8-2.632l.834,10.073c-.492.771-3.842,2.5-9.68,2.5Zm66.285-5.739a2.441,2.441,0,0,1-1.888.892H86.457l-.727-8.8a81.108,81.108,0,0,1,40.049,2.562,4.862,4.862,0,0,0,6.234-5.427l-7.6-45.7h3.878l10.616,54.484A2.4,2.4,0,0,1,138.392,121.021Z" transform="translate(-0.424 11.389)"/><path class="a" d="M27.155,26.526a2.424,2.424,0,0,0-.172,3.422,14.615,14.615,0,0,0,7.768,4.479,7.22,7.22,0,0,1-5.9,3.042,2.424,2.424,0,0,0,0,4.847,12.019,12.019,0,0,0,11.292-7.773A14.627,14.627,0,0,0,52.109,22.91,2.424,2.424,0,1,0,47.349,22a9.661,9.661,0,0,1-4.014,6.154A9.893,9.893,0,0,1,30.577,26.7a2.424,2.424,0,0,0-3.422-.172Z" transform="translate(36.496 28.455)"/><path class="a" d="M24.624,29.573a2.424,2.424,0,0,0,2.424-2.424,6.3,6.3,0,0,1,6.3-6.3,2.424,2.424,0,1,0,0-4.847A11.161,11.161,0,0,0,22.2,27.149a2.424,2.424,0,0,0,2.424,2.424Z" transform="translate(30.578 22.779)"/><path class="a" d="M33.847,4.847V2.424a2.424,2.424,0,0,0-4.847,0V4.847a2.424,2.424,0,0,0,4.847,0Z" transform="translate(40.259)"/><path class="a" d="M48.268,7.611l-2.424,2.424a2.424,2.424,0,1,0,3.427,3.427L51.7,11.038a2.424,2.424,0,1,0-3.427-3.427Z" transform="translate(63.187 9.782)"/><path class="a" d="M16.748,14.172a2.424,2.424,0,0,0,1.714-4.137L16.038,7.611a2.424,2.424,0,1,0-3.427,3.427l2.424,2.424a2.424,2.424,0,0,0,1.714.71Z" transform="translate(15.873 9.782)"/><path class="a" d="M24.651,12.5a2.458,2.458,0,0,0,.928-.184,2.424,2.424,0,0,0,1.311-3.168L24.106,2.427A2.424,2.424,0,1,0,19.63,4.283L22.412,11a2.424,2.424,0,0,0,2.239,1.5Z" transform="translate(26.626 1.257)"/><path class="a" d="M43.554,1.088A2.424,2.424,0,0,0,40.389,2.4L37.6,9.117a2.424,2.424,0,0,0,1.311,3.17,2.458,2.458,0,0,0,.928.184,2.424,2.424,0,0,0,2.239-1.5l2.782-6.718a2.424,2.424,0,0,0-1.311-3.17Z" transform="translate(52.244 1.285)"/><path class="a" d="M51.753,22.065a2.424,2.424,0,0,0,.928-.187L59.4,19.1a2.424,2.424,0,0,0-1.854-4.479L50.825,17.4a2.424,2.424,0,0,0,.928,4.666Z" transform="translate(69.191 20.548)"/><path class="a" d="M14.117,21.879A2.424,2.424,0,0,0,15.973,17.4L9.255,14.618A2.424,2.424,0,0,0,7.4,19.1Z" transform="translate(7.377 20.548)"/></g></g></svg>