<svg xmlns="http://www.w3.org/2000/svg" width="142.043" height="142.042" viewBox="0 0 142.043 142.042"><defs><style>.a{fill:#74ffe3;}</style></defs><g transform="translate(-1 -1)"><path class="a" d="M114.677,39.91H110.1a6.881,6.881,0,0,0-6.873,6.873v.875l-.861.431a6.729,6.729,0,0,0-1.75,10.777l2.612,2.612v20.5a1.229,1.229,0,0,1-1.414,1.214l-1.3-.2c-.955-3.15-3.425-5.246-5.485-6.974-2.028-1.7-3.26-2.823-3.26-4.039a27.751,27.751,0,0,1,1.077-7.462,31.985,31.985,0,0,0,1.214-8.575,19.8,19.8,0,0,0-4.582-12.323v-.277a26.347,26.347,0,0,0-52.693,0V59.088c-2.444,1.386-6.873,4.99-6.873,12.9a15.44,15.44,0,0,0,4.176,10.08l-7.34,1.129A1.229,1.229,0,0,1,25.33,81.98v-20.5l2.612-2.612a6.729,6.729,0,0,0-1.753-10.775l-.861-.431v-.875a6.881,6.881,0,0,0-6.873-6.873H13.873A6.881,6.881,0,0,0,7,46.783V84.369a16.634,16.634,0,0,0,18.7,16.509l11.082-1.384v22.892H91.767V99.494l11.082,1.384a16.638,16.638,0,0,0,18.7-16.509V46.783a6.881,6.881,0,0,0-6.873-6.873ZM104.411,52.188l3.393-1.7V46.783a2.293,2.293,0,0,1,2.291-2.291h4.582a2.293,2.293,0,0,1,2.291,2.291V58.238H106.462l-2.612-2.612a2.147,2.147,0,0,1,.561-3.439ZM39.8,62.7l1.567-.522V43.347a21.765,21.765,0,1,1,43.529,0v2.094l.671.671a15.139,15.139,0,0,1,3.911,9.835A27.751,27.751,0,0,1,88.4,63.409a31.985,31.985,0,0,0-1.214,8.575c0,3.443,2.6,5.624,4.9,7.549a23.5,23.5,0,0,1,2.784,2.593L75.73,79.182V74.813A18.3,18.3,0,0,0,82.6,60.529V42.2H70.243A24.9,24.9,0,0,1,56.38,38l-1.269-.848-9.164,6.11V60.529a18.326,18.326,0,0,0,9.1,15.812,6.026,6.026,0,0,1-1.274,3.622L52.3,81.583l1.549,1.549c2.2,2.2,3.533,3.54,3.549,7.127l-.147,1.9c-.447,2.907-2.147,7.386-7.977,10.99a25.6,25.6,0,0,0-5.437-5.945c-.958-.843-1.78-1.592-2.474-2.309v0h0c-1.446-1.494-2.286-2.848-2.286-4.582a9.567,9.567,0,0,1,.55-3.3,49.243,49.243,0,0,0,10.1,5.441l1.611-4.291C46.65,86.41,34.492,80.078,34.492,71.984c0-7.3,5.109-9.212,5.306-9.281ZM64.275,74.275A13.76,13.76,0,0,1,50.529,60.529V45.718l4.619-3.079a29.464,29.464,0,0,0,15.1,4.144h7.778V60.529A13.76,13.76,0,0,1,64.275,74.275Zm0,4.582a18.2,18.2,0,0,0,6.873-1.349V80.2l-7.821,7.821H61.805a12.044,12.044,0,0,0-3.388-6.77,10.675,10.675,0,0,0,1-3.068A18.277,18.277,0,0,0,64.275,78.857ZM61.819,92.6h1.507l2.316,2.316,2.9,22.885H59.876L61.81,92.676c0-.025,0-.048.009-.073Zm5.7-2.291,6.724-6.724.371.057L72.108,94.9ZM13.873,44.492h4.582a2.293,2.293,0,0,1,2.291,2.291V50.49l3.393,1.7a2.147,2.147,0,0,1,.561,3.439l-2.612,2.612H11.582V46.783A2.293,2.293,0,0,1,13.873,44.492Zm11.26,51.841A12.053,12.053,0,0,1,11.582,84.369V62.82h9.164V81.982a5.773,5.773,0,0,0,1.7,4.108,5.836,5.836,0,0,0,4.992,1.633l7.533-1.159a14.507,14.507,0,0,0-.481,3.748,9.535,9.535,0,0,0,1.239,4.713Zm16.232,4.809c2.048,1.814,3.92,3.592,4.7,5.931l.834,2.506,2.362-1.182a26.423,26.423,0,0,0,7.132-5.07L55.281,117.8H41.365Zm72.073-8.248a11.972,11.972,0,0,1-10.021,3.439l-11.366-1.42-4.866-.018V117.8H73.166l-2.234-17.595,3.837,3.837,4.378-19.7,21.964,3.379a5.847,5.847,0,0,0,4.99-1.633,5.773,5.773,0,0,0,1.7-4.108V62.82h9.164V84.369a11.988,11.988,0,0,1-3.53,8.525Z" transform="translate(7.746 20.656)"/><path class="a" d="M41.037,33.074A16.037,16.037,0,1,0,25,17.037,16.056,16.056,0,0,0,41.037,33.074Zm0-27.492A11.455,11.455,0,1,1,29.582,17.037,11.468,11.468,0,0,1,41.037,5.582Z" transform="translate(30.984 0)"/><path class="a" d="M45.278,8.532,42.039,5.293l-7.544,7.544L31.532,9.875l-3.239,3.239,6.2,6.2Z" transform="translate(35.236 5.542)"/><path class="a" d="M21.619,55.982a9.173,9.173,0,0,0,9.164-9.164V42.713a4.47,4.47,0,0,1,1.975-3.755,20.623,20.623,0,1,0-22.227.032,4.509,4.509,0,0,1,1.924,3.819v4.009A9.173,9.173,0,0,0,21.619,55.982Zm0-4.582a4.587,4.587,0,0,1-4.582-4.582H26.2A4.587,4.587,0,0,1,21.619,51.4ZM19.328,21.617a2.291,2.291,0,1,1,2.291,2.291A2.293,2.293,0,0,1,19.328,21.617ZM5.72,19.5A16.1,16.1,0,0,1,19.741,5.686a17.1,17.1,0,0,1,1.9-.105A15.86,15.86,0,0,1,32.3,9.654,16.029,16.029,0,0,1,30.282,35.1a8.924,8.924,0,0,0-4.05,7.132H23.91V28.069a6.873,6.873,0,1,0-4.582,0V42.236H17A8.919,8.919,0,0,0,13,35.13,15.979,15.979,0,0,1,5.72,19.5Z" transform="translate(0 0.002)"/><path class="a" d="M91.4,19.967l-5.624-1.876,2.651-5.3L79.613,3.974l-5.3,2.653L72.435,1H59.969L58.1,6.627l-5.3-2.653-8.816,8.816,2.651,5.3L41,19.967V32.433l5.624,1.876-2.651,5.3,8.816,8.816,5.3-2.653L59.967,51.4H72.433l1.874-5.627,5.3,2.653,8.816-8.816-2.651-5.3L91.4,32.435ZM86.82,29.131l-5.256,1.753-.387,1.01c-.115.293-.229.584-.355.868l-.444.992,2.477,4.953L78.71,42.852l-4.953-2.477-.992.444c-.282.126-.568.241-.859.351l-1.02.385L69.131,46.82H63.269l-1.755-5.265-1.02-.385c-.291-.11-.577-.225-.859-.351l-.992-.444L53.69,42.852l-4.144-4.144,2.477-4.953-.444-.992c-.128-.286-.241-.575-.355-.868l-.387-1.01-5.253-1.753V23.269l5.256-1.753.387-1.01c.115-.293.229-.584.355-.868l.444-.992-2.477-4.953,4.144-4.144,4.953,2.477.992-.444c.282-.126.568-.241.859-.351l1.019-.385,1.755-5.262h5.863l1.755,5.265,1.019.385c.291.11.577.225.859.351l.992.444L78.712,9.55l4.144,4.144L80.38,18.648l.444.992c.128.286.241.575.355.868l.387,1.01,5.253,1.753Z" transform="translate(51.641 0)"/><path class="a" d="M58.455,7A11.455,11.455,0,1,0,69.91,18.455,11.468,11.468,0,0,0,58.455,7Zm0,18.328a6.873,6.873,0,1,1,6.873-6.873A6.881,6.881,0,0,1,58.455,25.328Z" transform="translate(59.387 7.746)"/></g></svg>